<?xml version="1.0" standalone="no"?>
<!DOCTYPE svg PUBLIC "-//W3C//DTD SVG 20010904//EN"
 "http://www.w3.org/TR/2001/REC-SVG-20010904/DTD/svg10.dtd">
<svg version="1.0" xmlns="http://www.w3.org/2000/svg"
 width="1034.000000pt" height="1034.000000pt" viewBox="0 0 1034.000000 1034.000000"
 preserveAspectRatio="xMidYMid meet">
<metadata>
Created by potrace 1.14, written by Peter Selinger 2001-2017
</metadata>
<g transform="translate(0.000000,1034.000000) scale(0.100000,-0.100000)"
fill="#000000" stroke="none">
<path d="M136 10325 c-48 -17 -90 -56 -116 -109 -20 -41 -20 -46 -20 -5036 0
-3552 3 -5006 11 -5034 14 -51 86 -122 137 -136 28 -7 1558 -9 5044 -8 l5004
3 42 28 c23 15 54 46 69 69 l28 42 2 5015 c2 4939 2 5017 -17 5057 -24 52 -78
100 -127 113 -26 8 -1576 11 -5028 11 -4211 -1 -4996 -3 -5029 -15z"/>
</g>
</svg>
